<svg width="101" height="103" viewBox="0 0 101 103" fill="none" xmlns="http://www.w3.org/2000/svg">
<path d="M77.2187 17.6084C77.7798 18.0997 77.7798 18.0997 78.3523 18.601C78.2029 18.9004 78.0534 19.1999 77.8994 19.5084C75.9877 19.0878 74.383 18.2029 72.6628 17.2964C64.3093 13.0042 54.3555 12.2444 45.3819 15.0561C36.0952 18.1986 29.0708 24.472 24.2752 32.9949C19.8664 42.0334 18.7557 52.9561 21.8596 62.5841C25.2499 72.1731 31.5598 80.6518 40.7606 85.3013C42.9646 86.2551 45.2346 86.9538 47.5541 87.57C48.0043 87.6953 48.0043 87.6953 48.4631 87.8232C51.4175 88.576 54.3103 88.6522 57.3484 88.6477C58.1283 88.6468 58.1283 88.6468 58.9236 88.6454C64.4546 88.566 68.9326 87.4861 73.8232 84.8476C74.2716 84.8476 74.72 84.8476 75.1819 84.8476C75.1185 85.6434 75.1185 85.6434 74.729 86.6625C66.8687 92.8906 55.5757 95.4057 45.7262 94.27C36.1348 92.8675 28.1297 89.3614 20.8323 83.0326C20.4879 82.7345 20.1434 82.4359 19.7885 82.1287C12.7463 75.5272 7.58874 65.0711 7.24488 55.3542C7.22156 54.757 7.19819 54.1599 7.17414 53.5446C6.87956 42.2602 10.2233 32.5159 17.209 23.5921C17.5611 23.1263 17.5611 23.1263 17.9202 22.651C24.5684 14.4008 35.3302 9.61391 45.6541 8.29242C56.881 7.30249 68.4611 10.3165 77.2187 17.6084Z" fill="black"/>
<path d="M79.771 23.6796C86.9724 29.3308 91.8389 37.0404 93.1605 46.1771C94.1819 56.7588 91.5373 65.3151 85.2309 73.6944C80.0939 79.8935 72.2323 84.145 64.3153 85.3039C54.1619 86.0426 45.45 84.3887 37.2253 78.191C36.6875 77.5902 36.6875 77.5903 36.6875 76.229C38.167 76.7948 39.5239 77.4423 40.9053 78.2141C48.4982 82.0229 56.3689 81.983 64.3153 79.4052C67.3707 78.1946 69.9247 76.4763 72.4678 74.414C72.8387 74.135 73.2092 73.8559 73.591 73.5683C78.5617 69.3453 81.9912 62.005 82.5297 55.5451C82.9568 46.7737 81.4966 38.5376 75.6001 31.7223C69.9056 25.5286 63.3384 22.2784 54.896 21.6519C50.5585 21.5437 45.975 21.8684 42.0535 23.8693C40.7637 24.502 40.7637 24.502 38.9521 24.502C39.6229 22.5386 41.0498 21.798 42.7735 20.8437C43.0564 20.6846 43.3393 20.5254 43.6307 20.3615C46.0533 19.0456 48.4687 18.2095 51.1808 17.6958C51.5689 17.6139 51.9571 17.532 52.3574 17.4477C62.4058 16.107 71.451 17.7332 79.771 23.6796Z" fill="black"/>
<path d="M28.082 44.9219C29.8756 44.9219 31.6691 44.9219 33.517 44.9219C33.517 45.2213 33.517 45.5208 33.517 45.8294C33.2181 45.8294 32.9192 45.8294 32.6112 45.8294C32.7419 46.1792 32.8727 46.529 33.0075 46.8893C33.2597 47.5717 33.2597 47.5717 33.517 48.2682C33.7692 48.9475 33.7692 48.9475 34.0265 49.6399C34.4228 50.8206 34.4228 50.8206 34.4228 51.728C34.7218 51.728 35.0207 51.728 35.3287 51.728C35.4173 51.0765 35.5014 50.424 35.5834 49.7715C35.6307 49.408 35.678 49.0446 35.7267 48.6707C35.8484 47.5681 35.8484 47.5681 35.3287 46.2831C35.0297 46.1334 34.7308 45.9836 34.4228 45.8294C34.4228 45.5299 34.4228 45.2304 34.4228 44.9219C36.0669 44.9219 37.711 44.9219 39.4049 44.9219C39.2554 45.6706 39.106 46.4192 38.952 47.1906C39.1782 48.2111 39.1782 48.2111 39.6031 49.1471C39.7983 49.6222 39.7983 49.6222 39.9976 50.1064C40.1009 50.3419 40.2042 50.5778 40.3107 50.8206C41.3025 49.33 41.6686 48.0042 42.1224 46.2831C41.8235 46.1334 41.5245 45.9836 41.2166 45.8294C41.2166 45.5299 41.2166 45.2304 41.2166 44.9219C44.2058 44.9219 47.195 44.9219 50.2749 44.9219C50.2749 45.2213 50.2749 45.5208 50.2749 45.8294C49.9759 46.1288 49.677 46.4283 49.369 46.7369C49.9669 48.2342 50.5647 49.7316 51.1807 51.2743C52.1757 49.7792 52.1757 49.7792 52.5394 48.0981C52.091 46.8884 51.8927 46.4129 50.7278 45.8294C50.7278 45.5299 50.7278 45.2304 50.7278 44.9219C52.5213 44.9219 54.3149 44.9219 56.1627 44.9219C56.1627 45.2213 56.1627 45.5208 56.1627 45.8294C55.8638 45.8294 55.5649 45.8294 55.2569 45.8294C55.8548 47.6262 56.4526 49.423 57.0686 51.2743C58.0845 48.9135 58.6791 47.4887 57.9744 44.9219C59.3196 44.9219 60.6647 44.9219 62.0506 44.9219C62.0506 45.2213 62.0506 45.5208 62.0506 45.8294C61.8437 46.029 61.6362 46.2287 61.4229 46.4342C60.5424 47.3453 60.2693 48.1108 59.8658 49.3087C59.7272 49.7139 59.5881 50.1186 59.4455 50.5361C59.3055 50.9576 59.166 51.3791 59.0215 51.8133C58.8766 52.2399 58.7317 52.6664 58.5822 53.1061C58.2249 54.1583 57.8716 55.211 57.5215 56.2655C56.9236 56.2655 56.3258 56.2655 55.7098 56.2655C55.112 54.7681 54.5141 53.2708 53.8982 51.728C52.948 52.68 52.6975 53.2617 52.2564 54.5072C52.1386 54.8357 52.0204 55.1647 51.899 55.5032C51.8116 55.755 51.7237 56.0064 51.6336 56.2655C51.0358 56.2655 50.4379 56.2655 49.8219 56.2655C49.2141 54.8589 48.6118 53.4496 48.0103 52.0402C47.8373 51.64 47.6647 51.2403 47.4867 50.8287C47.2412 50.2516 47.2412 50.2516 46.9912 49.663C46.8395 49.3091 46.6878 48.9552 46.5311 48.5904C46.1986 47.6443 46.1986 47.6443 46.1986 46.2831C45.4513 46.2831 44.704 46.2831 43.934 46.2831C43.822 46.8444 43.7099 47.4061 43.5944 47.9847C43.1884 49.7833 42.7142 51.5515 42.179 53.3161C42.04 53.7794 41.9011 54.2427 41.7579 54.72C41.2166 55.8117 41.2166 55.8117 40.2506 56.1947C39.832 56.2296 39.832 56.2296 39.4049 56.2655C39.1113 55.6892 38.819 55.1125 38.5274 54.5358C38.3645 54.2146 38.2016 53.8933 38.0338 53.5625C37.5932 52.6355 37.5932 52.6355 37.1403 51.2743C36.393 52.9214 35.6457 54.5685 34.8758 56.2655C33.0641 55.8117 33.0641 55.8117 32.4986 54.8929C32.3431 54.4986 32.1876 54.1048 32.0273 53.6991C31.8534 53.2726 31.6794 52.8461 31.5001 52.4068C31.2374 51.7339 31.2374 51.7339 30.9694 51.0474C30.6169 50.1626 30.2621 49.2787 29.9043 48.3957C29.6726 47.805 29.6726 47.805 29.4361 47.2019C29.0659 46.2073 29.0659 46.2073 28.082 45.8294C28.082 45.5299 28.082 45.2304 28.082 44.9219Z" fill="black"/>
<path d="M68.9848 44.4128C69.4689 44.421 69.9526 44.4292 70.4513 44.4376C70.8173 44.4482 71.1837 44.4587 71.5605 44.4695C71.5605 45.967 71.5605 47.4643 71.5605 49.0071C71.1121 49.0071 70.6637 49.0071 70.2017 49.0071C70.1084 48.6418 70.0151 48.277 69.9187 47.9008C69.3933 46.6022 69.3933 46.6022 67.9657 46.2846C66.6219 46.1589 66.6219 46.1589 65.818 46.7756C64.9289 48.0692 65.0888 49.1314 65.135 50.68C65.1472 51.2154 65.1594 51.7504 65.1721 52.3022C65.188 52.7119 65.2038 53.1221 65.2197 53.5445C68.0114 54.0822 68.0114 54.0822 70.6832 53.3458C70.9726 53.1121 71.2625 52.878 71.5605 52.637C71.5605 54.452 71.5605 54.452 70.6832 55.4729C68.8145 56.5424 67.3262 56.5846 65.2197 56.267C63.9053 55.7066 63.2192 55.3214 62.4546 54.1171C61.6407 52.0558 61.8092 49.8188 62.0493 47.6458C63.6023 44.7651 65.8914 44.3447 68.9848 44.4128Z" fill="black"/>
</svg>
