<svg width="223" height="227" viewBox="0 0 223 227" fill="none" xmlns="http://www.w3.org/2000/svg">
<path d="M170.497 38.8097C171.736 39.8925 171.736 39.8925 173 40.9972C172.67 41.6572 172.34 42.3172 172 42.9972C167.779 42.0702 164.236 40.1199 160.438 38.1222C141.994 28.6626 120.017 26.988 100.204 33.1847C79.6996 40.1105 64.1904 53.9363 53.602 72.7198C43.8677 92.6396 41.4153 116.712 48.2685 137.931C55.754 159.064 69.6857 177.75 90.0004 187.997C94.8666 190.099 99.8786 191.639 105 192.997C105.994 193.273 105.994 193.273 107.007 193.555C113.53 195.214 119.917 195.382 126.625 195.372C128.347 195.37 128.347 195.37 130.103 195.367C142.315 195.192 152.202 192.812 163 186.997C163.99 186.997 164.98 186.997 166 186.997C165.86 188.751 165.86 188.751 165 190.997C147.645 204.723 122.711 210.266 100.964 207.763C79.787 204.672 62.1124 196.945 46.0004 182.997C45.2399 182.34 44.4793 181.682 43.6957 181.005C28.1472 166.456 16.7596 143.412 16.0004 121.997C15.9489 120.681 15.8973 119.365 15.8442 118.009C15.1938 93.1394 22.5766 71.6642 38.0004 51.9972C38.7777 50.9705 38.7777 50.9705 39.5707 49.923C54.2494 31.7406 78.0105 21.1908 100.805 18.2784C125.593 16.0967 151.161 22.7393 170.497 38.8097Z" fill="#050505"/>
<path d="M176.125 52.1882C192.025 64.6428 202.77 81.6338 205.688 101.77C207.943 125.091 202.104 143.948 188.18 162.415C176.838 176.077 159.48 185.447 142 188.001C119.582 189.629 100.347 185.984 82.1875 172.325C81 171.001 81 171.001 81 168.001C84.2667 169.248 87.2625 170.675 90.3125 172.376C107.077 180.77 124.455 180.682 142 175.001C148.746 172.333 154.385 168.546 160 164.001C160.819 163.386 161.637 162.771 162.48 162.137C173.455 152.83 181.027 136.653 182.216 122.416C183.159 103.085 179.935 84.9335 166.916 69.9133C154.343 56.2631 139.843 49.1002 121.203 47.7194C111.626 47.481 101.506 48.1965 92.8477 52.6062C90 54.0007 90 54.0007 86 54.0007C87.4811 49.6735 90.6317 48.0414 94.4375 45.9382C95.0621 45.5875 95.6866 45.2368 96.3301 44.8754C101.679 41.9754 107.012 40.1328 113 39.0007C113.857 38.8202 114.714 38.6397 115.598 38.4538C137.784 35.499 157.755 39.0831 176.125 52.1882Z" fill="#050505"/>
<path d="M62 99C65.96 99 69.92 99 74 99C74 99.66 74 100.32 74 101C73.34 101 72.68 101 72 101C72.2887 101.771 72.5775 102.542 72.875 103.336C73.4319 104.84 73.4319 104.84 74 106.375C74.5569 107.872 74.5569 107.872 75.125 109.398C76 112 76 112 76 114C76.66 114 77.32 114 78 114C78.1957 112.564 78.3813 111.126 78.5625 109.688C78.6669 108.887 78.7713 108.086 78.8789 107.262C79.1476 104.832 79.1476 104.832 78 102C77.34 101.67 76.68 101.34 76 101C76 100.34 76 99.68 76 99C79.63 99 83.26 99 87 99C86.67 100.65 86.34 102.3 86 104C86.4995 106.249 86.4995 106.249 87.4375 108.312C87.8687 109.359 87.8687 109.359 88.3086 110.426C88.5368 110.945 88.7649 111.465 89 112C91.1898 108.715 91.9981 105.793 93 102C92.34 101.67 91.68 101.34 91 101C91 100.34 91 99.68 91 99C97.6 99 104.2 99 111 99C111 99.66 111 100.32 111 101C110.34 101.66 109.68 102.32 109 103C110.32 106.3 111.64 109.6 113 113C115.197 109.705 115.197 109.705 116 106C115.01 103.334 114.572 102.286 112 101C112 100.34 112 99.68 112 99C115.96 99 119.92 99 124 99C124 99.66 124 100.32 124 101C123.34 101 122.68 101 122 101C123.32 104.96 124.64 108.92 126 113C128.243 107.797 129.556 104.657 128 99C130.97 99 133.94 99 137 99C137 99.66 137 100.32 137 101C136.543 101.44 136.085 101.88 135.614 102.333C133.67 104.341 133.067 106.028 132.176 108.668C131.87 109.561 131.563 110.453 131.248 111.373C130.939 112.302 130.631 113.231 130.312 114.188C129.992 115.128 129.672 116.068 129.342 117.037C128.553 119.356 127.773 121.676 127 124C125.68 124 124.36 124 123 124C121.68 120.7 120.36 117.4 119 114C116.902 116.098 116.349 117.38 115.375 120.125C115.115 120.849 114.854 121.574 114.586 122.32C114.393 122.875 114.199 123.429 114 124C112.68 124 111.36 124 110 124C108.658 120.9 107.328 117.794 106 114.688C105.618 113.806 105.237 112.925 104.844 112.018C104.302 110.746 104.302 110.746 103.75 109.449C103.415 108.669 103.08 107.889 102.734 107.085C102 105 102 105 102 102C100.35 102 98.7 102 97 102C96.7525 103.237 96.505 104.475 96.25 105.75C95.3537 109.714 94.3066 113.611 93.125 117.5C92.8182 118.521 92.5114 119.542 92.1953 120.594C91 123 91 123 88.8672 123.844C87.9429 123.921 87.9429 123.921 87 124C86.3517 122.73 85.7064 121.459 85.0625 120.188C84.7029 119.48 84.3432 118.772 83.9727 118.043C83 116 83 116 82 113C80.35 116.63 78.7 120.26 77 124C73 123 73 123 71.7515 120.975C71.4081 120.106 71.0647 119.238 70.7109 118.344C70.3268 117.404 69.9427 116.464 69.5469 115.496C68.9668 114.013 68.9668 114.013 68.375 112.5C67.5969 110.55 66.8134 108.602 66.0234 106.656C65.5118 105.354 65.5118 105.354 64.9897 104.025C64.1724 101.833 64.1724 101.833 62 101C62 100.34 62 99.68 62 99Z" fill="#060606"/>
<path d="M152.312 97.8738C153.381 97.8919 154.449 97.9099 155.55 97.9285C156.358 97.9517 157.167 97.9749 157.999 97.9988C157.999 101.299 157.999 104.599 157.999 107.999C157.009 107.999 156.019 107.999 154.999 107.999C154.793 107.194 154.587 106.39 154.374 105.561C153.214 102.699 153.214 102.699 150.062 101.999C147.095 101.722 147.095 101.722 145.32 103.081C143.357 105.932 143.71 108.273 143.812 111.686C143.839 112.866 143.866 114.045 143.894 115.261C143.929 116.164 143.964 117.068 143.999 117.999C150.163 119.184 150.163 119.184 156.062 117.561C156.701 117.046 157.341 116.53 157.999 115.999C157.999 119.999 157.999 119.999 156.062 122.249C151.936 124.606 148.65 124.699 143.999 123.999C141.097 122.764 139.582 121.915 137.894 119.261C136.097 114.718 136.469 109.788 136.999 104.999C140.428 98.6503 145.482 97.7237 152.312 97.8738Z" fill="#060606"/>
</svg>
